<?xml version="1.0" encoding="utf-8"?>
<!-- Generator: Adobe Illustrator 21.0.0, SVG Export Plug-In . SVG Version: 6.00 Build 0)  -->
<svg version="1.1" id="Layer_1" xmlns:svgjs="http://svgjs.com/svgjs"
	 xmlns="http://www.w3.org/2000/svg" xmlns:xlink="http://www.w3.org/1999/xlink" x="0px" y="0px" viewBox="0 0 512 512"
	 style="enable-background:new 0 0 512 512;" xml:space="preserve">
<style type="text/css">
	.st0{fill:#FFFFFF;}
</style>
<g>
	<g>
		<g>
			<path class="st0" d="M256,350.9c-14.3,0-26.3,12-26.3,26.3s12,26.3,26.3,26.3c13.8,0,26.3-12,25.7-25.7
				C282.3,362.8,270.4,350.9,256,350.9z"/>
			<path class="st0" d="M499.5,444.1c16.5-28.5,16.6-62.5,0.2-90.9L334.9,67.8C318.6,39,289.1,22,256.1,22s-62.5,17.2-78.8,45.7
				l-165,285.8c-16.4,28.7-16.3,62.9,0.3,91.5C29,473.1,58.3,490,91.2,490h329.2C453.3,490,482.9,472.9,499.5,444.1z M463.8,423.5
				c-9.2,15.8-25.4,25.2-43.5,25.2H91.1c-17.9,0-34-9.2-42.9-24.6c-9.1-15.7-9.2-34.4-0.1-50.2l165-285.6
				c8.9-15.7,24.9-24.9,43-24.9c18,0,34.1,9.4,43,25l164.9,285.6C472.9,389.3,472.8,407.8,463.8,423.5z"/>
			<path class="st0" d="M249.5,166.2c-12.5,3.6-20.3,14.9-20.3,28.7c0.6,8.3,1.2,16.7,1.8,25c1.8,31.7,3.6,62.7,5.4,94.4
				c0.6,10.7,8.9,18.5,19.7,18.5s19.2-8.3,19.7-19.2c0-6.5,0-12.5,0.6-19.2c1.2-20.3,2.4-40.6,3.6-60.9c0.6-13.2,1.8-26.3,2.4-39.5
				c0-4.7-0.6-8.9-2.4-13.2C274.5,169.2,262,163.2,249.5,166.2z"/>
		</g>
	</g>
</g>
</svg>
