<?xml version="1.0" encoding="utf-8"?>
<!-- Generator: Adobe Illustrator 21.0.0, SVG Export Plug-In . SVG Version: 6.00 Build 0)  -->
<svg version="1.1" id="Layer_1" xmlns="http://www.w3.org/2000/svg" xmlns:xlink="http://www.w3.org/1999/xlink" x="0px" y="0px"
	 viewBox="0 0 512 512" style="enable-background:new 0 0 512 512;" xml:space="preserve">
<style type="text/css">
	.st0{fill:#3E4DDB;}
</style>
<g>
	<g>
		<path d="M495.4,111.2H384.3c-4.4,0-8,3.6-8,8v8.6c0,5-4.1,9.1-9.1,9.1s-9.1-4.1-9.1-9.1v-8.6c0-4.4-3.6-8-8-8H16.6
			c-9.1,0-16.6,7.4-16.6,16.6v256.5c0,9.1,7.4,16.6,16.6,16.6h333.5c4.4,0,8-3.6,8-8v-8.6c0-5,4.1-9.1,9.1-9.1s9.1,4.1,9.1,9.1v8.6
			c0,4.4,3.6,8,8,8h111.2c9.1,0,16.6-7.4,16.6-16.6V127.7C512,118.6,504.6,111.2,495.4,111.2z M496,384.3c0,0.3-0.2,0.5-0.5,0.5
			H392.3v-0.5c0-11-7.2-20.4-17.1-23.8v-10.4c0-4.4-3.6-8-8-8c-4.4,0-8,3.6-8,8v10.4c-9.9,3.4-17.1,12.8-17.1,23.8v0.5H16.6
			c-0.3,0-0.5-0.2-0.5-0.5V127.7c0-0.3,0.2-0.5,0.5-0.5H342v0.5c0,11,7.2,20.4,17.1,23.8v10.4c0,4.4,3.6,8,8,8c4.4,0,8-3.6,8-8
			v-10.4c9.9-3.4,17.1-12.8,17.1-23.8v-0.5h103.1c0.3,0,0.5,0.2,0.5,0.5L496,384.3L496,384.3z"/>
	</g>
</g>
<g>
	<g>
		<path class="st0" d="M367.2,188.1c-4.4,0-8,3.6-8,8v17.1c0,4.4,3.6,8,8,8c4.4,0,8-3.6,8-8v-17.1
			C375.2,191.7,371.6,188.1,367.2,188.1z"/>
	</g>
</g>
<g>
	<g>
		<path d="M367.2,239.4c-4.4,0-8,3.6-8,8v17.1c0,4.4,3.6,8,8,8c4.4,0,8-3.6,8-8v-17.1C375.2,243,371.6,239.4,367.2,239.4z"/>
	</g>
</g>
<g>
	<g>
		<path class="st0" d="M367.2,290.7c-4.4,0-8,3.6-8,8v17.1c0,4.4,3.6,8,8,8c4.4,0,8-3.6,8-8v-17.1
			C375.2,294.3,371.6,290.7,367.2,290.7z"/>
	</g>
</g>
<g>
	<g>
		<path class="st0" d="M261.7,173.4c-3.1-3.1-8.2-3.1-11.3,0L96.4,327.3c-3.1,3.1-3.1,8.2,0,11.3c1.6,1.6,3.6,2.3,5.7,2.3
			s4.1-0.8,5.7-2.3l153.9-153.9C264.8,181.6,264.8,176.5,261.7,173.4z"/>
	</g>
</g>
<g>
	<g>
		<path class="st0" d="M127.7,162.5c-23.3,0-42.2,18.9-42.2,42.2s18.9,42.2,42.2,42.2S170,228,170,204.7S151,162.5,127.7,162.5z
			 M127.7,230.9c-14.4,0-26.2-11.7-26.2-26.2s11.7-26.2,26.2-26.2s26.2,11.7,26.2,26.2S142.2,230.9,127.7,230.9z"/>
	</g>
</g>
<g>
	<g>
		<path class="st0" d="M230.3,265.1c-23.3,0-42.2,18.9-42.2,42.2s18.9,42.2,42.2,42.2s42.2-18.9,42.2-42.2S253.6,265.1,230.3,265.1z
			 M230.3,333.5c-14.4,0-26.2-11.7-26.2-26.2s11.7-26.2,26.2-26.2s26.2,11.7,26.2,26.2S244.8,333.5,230.3,333.5z"/>
	</g>
</g>
</svg>
