<?xml version="1.0" encoding="utf-8"?>
<!-- Generator: Adobe Illustrator 21.0.0, SVG Export Plug-In . SVG Version: 6.00 Build 0)  -->
<svg version="1.1" id="Layer_1" xmlns="http://www.w3.org/2000/svg" xmlns:xlink="http://www.w3.org/1999/xlink" x="0px" y="0px"
	 viewBox="0 0 512 512" style="enable-background:new 0 0 512 512;" xml:space="preserve">
<style type="text/css">
	.st0{fill:#3E4DDB;}
</style>
<path d="M476.2,286.9l-13.3-53c3.6-0.8,6.3-4,6.3-7.8v-8.6c0-18.6-15.1-33.7-33.7-33.7h-60.4v-17.6c0-9.1-7.4-16.6-16.6-16.6H246.3
	l68.2-27.3c4.1-1.6,6.1-6.3,4.5-10.4c-1.6-4.1-6.3-6.1-10.4-4.5l-55.9,22.3c17-10.9,33.9-22.9,40.3-31.4c12.5-16.4,9.3-39.8-7-52.3
	c-16.4-12.5-39.8-9.3-52.3,7c-9.1,12-21.2,45.6-28.9,69.3c-7.8-23.7-19.8-57.3-28.9-69.3c-12.5-16.4-36-19.5-52.3-7s-19.5,36-7,52.3
	c6.4,8.4,23.3,20.4,40.3,31.4l-55.9-22.3c-4.1-1.6-8.8,0.4-10.4,4.5c-1.6,4.1,0.4,8.8,4.5,10.4l68.2,27.3H50.8
	c-9.1,0-16.6,7.4-16.6,16.6v145.4c0,4.4,3.6,8,8,8c4.4,0,8-3.6,8-8V166.2c0-0.3,0.2-0.5,0.5-0.5h307.8c0.3,0,0.5,0.2,0.5,0.5v145.4
	c0,4.4,3.6,8,8,8c4.4,0,8-3.6,8-8v-9.1h94.6c0,0,0,0,0,0s0,0,0,0c11.6,0,21.5,7.6,24.9,18.2h-24.9c-4.4,0-8,3.6-8,8v17.1
	c0,13.9,11.3,25.1,25.1,25.1h9.1v35.3h-21c-6.9-19.9-25.8-34.2-48-34.2s-41.1,14.3-48,34.2h-3.9v-60.4c0-4.4-3.6-8-8-8
	c-4.4,0-8,3.6-8,8v60.4H192.8c-6.9-19.9-25.8-34.2-48-34.2s-41.1,14.3-48,34.2H50.8c-0.3,0-0.5-0.2-0.5-0.5V388H85c4.4,0,8-3.6,8-8
	s-3.6-8-8-8H8c-4.4,0-8,3.6-8,8s3.6,8,8,8h26.2v17.6c0,9.1,7.4,16.6,16.6,16.6h43.3c0,0.2,0,0.4,0,0.5c0,28,22.8,50.8,50.8,50.8
	s50.8-22.8,50.8-50.8c0-0.2,0-0.4,0-0.5h180.7c0,0.2,0,0.4,0,0.5c0,28,22.8,50.8,50.8,50.8s50.8-22.8,50.8-50.8c0-0.2,0-0.4,0-0.5
	H504c4.4,0,8-3.6,8-8v-85.5C512,307.6,496.4,290,476.2,286.9z M172.9,121.1c-31.6-19.7-41-28.7-43.8-32.3c-7.1-9.3-5.3-22.7,4-29.9
	c3.9-2.9,8.4-4.4,12.9-4.4c6.4,0,12.8,2.9,17,8.4c7.8,10.2,19.9,44.4,27.9,69.1C185.5,128.8,179.3,125,172.9,121.1z M218.5,131.9
	c8-24.7,20.2-58.9,27.9-69.1c7.1-9.3,20.5-11.1,29.9-4c9.3,7.1,11.1,20.5,4,29.9c-2.8,3.6-12.2,12.7-43.8,32.3
	C230.1,125,223.9,128.8,218.5,131.9z M375.2,199.9h60.4c9.7,0,17.6,7.9,17.6,17.6v0.5h-78V199.9z M375.2,286.5v-52.4h71.2l13.1,52.4
	H375.2z M144.8,457.5c-19.2,0-34.7-15.6-34.7-34.7s15.6-34.7,34.7-34.7s34.7,15.6,34.7,34.7S164,457.5,144.8,457.5z M427,457.5
	c-19.2,0-34.7-15.6-34.7-34.7S407.9,388,427,388c19.2,0,34.7,15.6,34.7,34.7S446.2,457.5,427,457.5z M496,354.9h-9.1
	c-5,0-9.1-4.1-9.1-9.1v-9.1H496L496,354.9L496,354.9z"/>
<g>
	<g>
		<path class="st0" d="M144.8,406.2c-9.1,0-16.6,7.4-16.6,16.6s7.4,16.6,16.6,16.6c9.1,0,16.6-7.4,16.6-16.6S154,406.2,144.8,406.2z
			"/>
	</g>
</g>
<g>
	<g>
		<path class="st0" d="M427,406.2c-9.1,0-16.6,7.4-16.6,16.6s7.4,16.6,16.6,16.6s16.6-7.4,16.6-16.6S436.2,406.2,427,406.2z"/>
	</g>
</g>
<g>
	<g>
		<path class="st0" d="M333,372H213.2c-4.4,0-8,3.6-8,8s3.6,8,8,8H333c4.4,0,8-3.6,8-8S337.4,372,333,372z"/>
	</g>
</g>
<g>
	<g>
		<path class="st0" d="M127.7,337.8H25.1c-4.4,0-8,3.6-8,8s3.6,8,8,8h102.6c4.4,0,8-3.6,8-8S132.2,337.8,127.7,337.8z"/>
	</g>
</g>
<g>
	<g>
		<path class="st0" d="M127.7,218H93.5c-4.4,0-8,3.6-8,8v68.4c0,4.4,3.6,8,8,8s8-3.6,8-8v-26.2h17.6c4.4,0,8-3.6,8-8s-3.6-8-8-8
			h-17.6v-18.2h26.2c4.4,0,8-3.6,8-8C135.7,221.6,132.2,218,127.7,218z"/>
	</g>
</g>
<g>
	<g>
		<path class="st0" d="M190.8,272c8-5.3,13.3-14.3,13.3-24.6c0-16.2-13.2-29.4-29.4-29.4h-21.4c-4.4,0-8,3.6-8,8v68.4
			c0,4.4,3.6,8,8,8s8-3.6,8-8v-17.6h13.3l14.7,22.1c1.5,2.3,4.1,3.6,6.7,3.6c1.5,0,3.1-0.4,4.4-1.3c3.7-2.5,4.7-7.4,2.2-11.1
			L190.8,272z M174.8,260.8h-13.4v-26.7h13.4c7.4,0,13.4,6,13.4,13.4C188.1,254.8,182.1,260.8,174.8,260.8z"/>
	</g>
</g>
<g>
	<g>
		<path class="st0" d="M256,286.5h-26.2v-18.2c0.2,0,0.4,0,0.5,0h17.1c4.4,0,8-3.6,8-8s-3.6-8-8-8h-17.1c-0.2,0-0.4,0-0.5,0v-18.2
			H256c4.4,0,8-3.6,8-8c0-4.4-3.6-8-8-8h-34.2c-4.4,0-8,3.6-8,8v68.4c0,4.4,3.6,8,8,8H256c4.4,0,8-3.6,8-8S260.4,286.5,256,286.5z"
			/>
	</g>
</g>
<g>
	<g>
		<path class="st0" d="M315.9,286.5h-26.2v-18.2h9.1c4.4,0,8-3.6,8-8s-3.6-8-8-8h-9.1v-18.2h26.2c4.4,0,8-3.6,8-8c0-4.4-3.6-8-8-8
			h-34.2c-4.4,0-8,3.6-8,8v68.4c0,4.4,3.6,8,8,8h34.2c4.4,0,8-3.6,8-8S320.3,286.5,315.9,286.5z"/>
	</g>
</g>
</svg>
