<?xml version="1.0" encoding="utf-8"?>
<!-- Generator: Adobe Illustrator 21.0.0, SVG Export Plug-In . SVG Version: 6.00 Build 0)  -->
<svg version="1.1" id="Layer_1" xmlns="http://www.w3.org/2000/svg" xmlns:xlink="http://www.w3.org/1999/xlink" x="0px" y="0px"
	 viewBox="0 0 512 512" style="enable-background:new 0 0 512 512;" xml:space="preserve">
<style type="text/css">
	.st0{fill:#6E7FD3;}
	.st1{fill:#DBE1FC;}
</style>
<g>
	<path class="st0" d="M220,8H36C20.5,8,8,20.5,8,36v184c0,15.5,12.5,28,28,28h184c15.5,0,28-12.5,28-28V36C248,20.5,235.5,8,220,8z
		 M232,220c0,6.6-5.4,12-12,12H36c-6.6,0-12-5.4-12-12V36c0-6.6,5.4-12,12-12h184c6.6,0,12,5.4,12,12V220z"/>
	<rect x="19" y="22" class="st0" width="220" height="211"/>
</g>
<g>
	<path class="st1" d="M476,8H292c-15.5,0-28,12.5-28,28v184c0,15.5,12.5,28,28,28h184c15.5,0,28-12.5,28-28V36
		C504,20.5,491.5,8,476,8z M488,220c0,6.6-5.4,12-12,12H292c-6.6,0-12-5.4-12-12V36c0-6.6,5.4-12,12-12h184c6.6,0,12,5.4,12,12V220z
		"/>
	<rect x="276" y="22" class="st1" width="220" height="211"/>
</g>
<g>
	<path class="st1" d="M220,264H36c-15.5,0-28,12.5-28,28v184c0,15.5,12.5,28,28,28h184c15.5,0,28-12.5,28-28V292
		C248,276.5,235.5,264,220,264z M232,476c0,6.6-5.4,12-12,12H36c-6.6,0-12-5.4-12-12V292c0-6.6,5.4-12,12-12h184c6.6,0,12,5.4,12,12
		V476z"/>
	<rect x="16" y="278.5" class="st1" width="220" height="211"/>
</g>
<g>
	<path class="st0" d="M476,264H292c-15.5,0-28,12.5-28,28v184c0,15.5,12.5,28,28,28h184c15.5,0,28-12.5,28-28V292
		C504,276.5,491.5,264,476,264z M488,476c0,6.6-5.4,12-12,12H292c-6.6,0-12-5.4-12-12V292c0-6.6,5.4-12,12-12h184
		c6.6,0,12,5.4,12,12V476z"/>
	<rect x="274" y="278.5" class="st0" width="220" height="211"/>
</g>
</svg>
